# xmcd CD database file
#
# Track frame offsets:
#	150
#	7820
#	25948
#	44621
#	64819
#	82082
#
# Disc length: 1370 seconds
#
# Revision: 1
# Processed by: cddbd v1.5.2PL0 Copyright (c) Steve Scherf et al.
# Submitted via: jetAudio 7
#
DISCID=45055806
DTITLE=신승훈 - Radio Wave (Unexpected Twist)
DYEAR=2008
DGENRE=Ballad
TTITLE0=Different Wave
TTITLE1=Hey
TTITLE2=라디오를 켜봐요
TTITLE3=나비효과
TTITLE4=I do
TTITLE5=너를 안는다
EXTD=
EXTT0=
EXTT1=
EXTT2=
EXTT3=
EXTT4=
EXTT5=
PLAYORDER=
